<svg width="90" height="90" viewBox="0 0 90 90" fill="none" xmlns="http://www.w3.org/2000/svg">
<g clip-path="url(#clip0_76_2225)">
<path d="M79.4039 36.1477C78.0785 34.7625 76.7074 33.3352 76.1906 32.0801C75.7125 30.9305 75.6844 29.025 75.6562 27.1793C75.6035 23.748 75.5473 19.8598 72.8438 17.1562C70.1402 14.4527 66.252 14.3965 62.8207 14.3438C60.975 14.3156 59.0695 14.2875 57.9199 13.8094C56.6684 13.2926 55.2375 11.9215 53.8523 10.5961C51.4266 8.26523 48.6703 5.625 45 5.625C41.3297 5.625 38.577 8.26523 36.1477 10.5961C34.7625 11.9215 33.3352 13.2926 32.0801 13.8094C30.9375 14.2875 29.025 14.3156 27.1793 14.3438C23.748 14.3965 19.8598 14.4527 17.1562 17.1562C14.4527 19.8598 14.4141 23.748 14.3438 27.1793C14.3156 29.025 14.2875 30.9305 13.8094 32.0801C13.2926 33.3316 11.9215 34.7625 10.5961 36.1477C8.26523 38.5734 5.625 41.3297 5.625 45C5.625 48.6703 8.26523 51.423 10.5961 53.8523C11.9215 55.2375 13.2926 56.6648 13.8094 57.9199C14.2875 59.0695 14.3156 60.975 14.3438 62.8207C14.3965 66.252 14.4527 70.1402 17.1562 72.8438C19.8598 75.5473 23.748 75.6035 27.1793 75.6562C29.025 75.6844 30.9305 75.7125 32.0801 76.1906C33.3316 76.7074 34.7625 78.0785 36.1477 79.4039C38.5734 81.7348 41.3297 84.375 45 84.375C48.6703 84.375 51.423 81.7348 53.8523 79.4039C55.2375 78.0785 56.6648 76.7074 57.9199 76.1906C59.0695 75.7125 60.975 75.6844 62.8207 75.6562C66.252 75.6035 70.1402 75.5473 72.8438 72.8438C75.5473 70.1402 75.6035 66.252 75.6562 62.8207C75.6844 60.975 75.7125 59.0695 76.1906 57.9199C76.7074 56.6684 78.0785 55.2375 79.4039 53.8523C81.7348 51.4266 84.375 48.6703 84.375 45C84.375 41.3297 81.7348 38.577 79.4039 36.1477ZM61.0523 38.5523L41.3648 58.2398C41.1036 58.5013 40.7935 58.7088 40.452 58.8503C40.1106 58.9919 39.7446 59.0647 39.375 59.0647C39.0054 59.0647 38.6394 58.9919 38.298 58.8503C37.9565 58.7088 37.6464 58.5013 37.3852 58.2398L28.9477 49.8023C28.4199 49.2746 28.1234 48.5588 28.1234 47.8125C28.1234 47.0662 28.4199 46.3504 28.9477 45.8227C29.4754 45.2949 30.1912 44.9984 30.9375 44.9984C31.6838 44.9984 32.3996 45.2949 32.9273 45.8227L39.375 52.2738L57.0727 34.5727C57.334 34.3113 57.6442 34.1041 57.9856 33.9626C58.327 33.8212 58.693 33.7484 59.0625 33.7484C59.432 33.7484 59.798 33.8212 60.1394 33.9626C60.4808 34.1041 60.791 34.3113 61.0523 34.5727C61.3137 34.834 61.5209 35.1442 61.6624 35.4856C61.8038 35.827 61.8766 36.193 61.8766 36.5625C61.8766 36.932 61.8038 37.298 61.6624 37.6394C61.5209 37.9808 61.3137 38.291 61.0523 38.5523Z" fill="#6CBA4D"/>
</g>
<defs>
<clipPath id="clip0_76_2225">
<rect width="90" height="90" fill="white"/>
</clipPath>
</defs>
</svg>
